<svg xmlns="http://www.w3.org/2000/svg" width="639" height="636" viewBox="0 0 639 636">
    <g id="rooms" fill="#F5F5F5">
        <path data-room="4400" d="M619 404h-69v-20h-52v-52h121z"/>
        <path data-room="4000" d="M496 404h-44v-19H190v19h-45v-72h351z"/>
        <path data-room="4700" d="M143 384H91v20H22v-72h121z"/>
        <path data-room="4600" d="M213 148H105v24H64V21h149z"/>
        <path data-room="4550" d="M215 21h213v127H215z"/>
        <path data-room="4009" d="M145 174h353v39H145z"/>
        <path data-room="4500" d="M578 172h-39v-24H430V21h148z"/>
    </g>
    <g fill="none" stroke="#231F20" stroke-width="2" stroke-linecap="square">
        <path d="M451 387v-1h-1"/>
        <path stroke-dasharray="1.9695,5.9084" d="M444.092 386H194.954"/>
        <path d="M192 386h-1v1"/>
        <path stroke-dasharray="2,6" d="M191 393v197"/>
        <path d="M191 593v1h1"/>
        <path stroke-dasharray="1.9695,5.9084" d="M197.908 594h249.138"/>
        <path d="M450 594h1v-1"/>
        <path stroke-dasharray="2,6" d="M451 587V390"/>
    </g>
    <path fill="none" stroke="#231F20" stroke-width="2" d="M394 214h71v117h-71zm71 81h-71m71-40h-71m39.236-23.714l-5.994-6.865-5.989 6.865m.43 6.583l5.995 6.868 5.993-6.868m-.435 33.319l-5.994-6.864-5.989 6.864m.43 6.583l5.995 6.868 5.993-6.868m-.435 32.455l-5.994-6.865-5.989 6.865m.43 6.58l5.995 6.867 5.993-6.867M178 214h72v117h-72zm321-41h80V20H63v153h81.646M429 20.658v117.104M620 405.16v-73.833M214 20.658v117.104"/>
    <path fill="none" stroke="#231F20" stroke-width="2" d="M106 149h38v24h-38zm393 0h39v23.878h-39zm-320 0h71v24h-71zm107 0h71v24h-71zm108 0h71v24h-71zm105 24v41m-355.04-49.782v51.615M620 405v211H21V332m122.96-118.361L144 331H21V214h123.357M549 405h71m-599 0h70m374-74h155V214H465"/>
    <path d="M473.94 82.295l6.771-10.071h3.734l-.023 9.758 2.578-.024v2.265h-2.603v4.385h-2.626v-4.385h-7.831v-1.928zm7.855-.289l.049-7.493-4.939 7.541 4.89-.048zm7.157 2.915l2.843-.313s.41 2.12 2.915 2.12c1.977 0 3.157-1.253 3.157-3.301 0-2.096-1.277-3.373-3.277-3.373-1.373 0-2.217.723-2.626 1.518l-2.675-.988 1.061-8.289 9.204-.072v2.385h-6.964l-.626 4.241c.603-.506 1.59-1.036 3.325-1.036 3.59 0 5.444 2.434 5.444 5.638 0 2.795-1.59 5.518-5.927 5.518-5.3 0-5.854-4.048-5.854-4.048zm14.506-4.457c0-4.024 1.253-8.65 6.144-8.65 4.939 0 6.048 4.578 6.048 8.65 0 4.048-1.181 8.505-6.072 8.505-5.036 0-6.12-4.433-6.12-8.505zm9.275 0c0-3.253-.723-6.385-3.18-6.385-2.458 0-3.181 3.06-3.181 6.336s.675 6.312 3.156 6.312c2.435.001 3.205-2.962 3.205-6.263zm6.049 0c0-4.024 1.253-8.65 6.144-8.65 4.939 0 6.048 4.578 6.048 8.65 0 4.048-1.181 8.505-6.072 8.505-5.036 0-6.12-4.433-6.12-8.505zm9.276 0c0-3.253-.723-6.385-3.18-6.385-2.458 0-3.181 3.06-3.181 6.336s.675 6.312 3.156 6.312c2.434.001 3.205-2.962 3.205-6.263zM289.789 82.295l6.77-10.071h3.735l-.024 9.758 2.578-.024v2.265h-2.602v4.385h-2.626v-4.385h-7.831v-1.928zm7.855-.289l.048-7.493-4.939 7.541 4.891-.048zm7.156 2.915l2.843-.313s.41 2.12 2.916 2.12c1.976 0 3.156-1.253 3.156-3.301 0-2.096-1.277-3.373-3.277-3.373-1.373 0-2.216.723-2.626 1.518l-2.674-.988 1.06-8.289 9.204-.072v2.385h-6.963l-.626 4.241c.602-.506 1.59-1.036 3.325-1.036 3.59 0 5.445 2.434 5.445 5.638 0 2.795-1.59 5.518-5.927 5.518-5.302 0-5.856-4.048-5.856-4.048zm14.12 0l2.843-.313s.41 2.12 2.916 2.12c1.976 0 3.156-1.253 3.156-3.301 0-2.096-1.277-3.373-3.277-3.373-1.373 0-2.216.723-2.626 1.518l-2.674-.988 1.06-8.289 9.204-.072v2.385h-6.963l-.626 4.241c.602-.506 1.59-1.036 3.325-1.036 3.59 0 5.445 2.434 5.445 5.638 0 2.795-1.59 5.518-5.927 5.518-5.301 0-5.856-4.048-5.856-4.048zm14.506-4.457c0-4.024 1.253-8.65 6.144-8.65 4.939 0 6.047 4.578 6.047 8.65 0 4.048-1.181 8.505-6.071 8.505-5.036 0-6.12-4.433-6.12-8.505zm9.276 0c0-3.253-.723-6.385-3.181-6.385s-3.18 3.06-3.18 6.336.675 6.312 3.156 6.312c2.434.001 3.205-2.962 3.205-6.263zM530.481 359.687l6.771-10.071h3.734l-.023 9.758 2.578-.024v2.265h-2.603V366h-2.626v-4.385h-7.831v-1.928zm7.855-.289l.049-7.493-4.939 7.542 4.89-.049zm6.458.289l6.771-10.071h3.734l-.023 9.758 2.578-.024v2.265h-2.603V366h-2.626v-4.385h-7.831v-1.928zm7.854-.289l.049-7.493-4.939 7.542 4.89-.049zm7.543-1.542c0-4.024 1.253-8.65 6.144-8.65 4.939 0 6.048 4.578 6.048 8.65 0 4.048-1.181 8.505-6.072 8.505-5.036 0-6.12-4.433-6.12-8.505zm9.276 0c0-3.253-.723-6.385-3.18-6.385-2.458 0-3.181 3.06-3.181 6.336s.675 6.312 3.156 6.312c2.434.001 3.205-2.962 3.205-6.263zm6.05 0c0-4.024 1.253-8.65 6.144-8.65 4.939 0 6.048 4.578 6.048 8.65 0 4.048-1.181 8.505-6.072 8.505-5.036 0-6.12-4.433-6.12-8.505zm9.275 0c0-3.253-.723-6.385-3.18-6.385-2.458 0-3.181 3.06-3.181 6.336s.675 6.312 3.156 6.312c2.434.001 3.205-2.962 3.205-6.263zM288.584 359.687l6.77-10.071h3.735l-.024 9.758 2.578-.024v2.265h-2.602V366h-2.626v-4.385h-7.831v-1.928zm7.855-.289l.048-7.493-4.939 7.542 4.891-.049zm7.542-1.542c0-4.024 1.253-8.65 6.144-8.65 4.939 0 6.047 4.578 6.047 8.65 0 4.048-1.181 8.505-6.071 8.505-5.036 0-6.12-4.433-6.12-8.505zm9.276 0c0-3.253-.723-6.385-3.181-6.385s-3.18 3.06-3.18 6.336.675 6.312 3.156 6.312c2.434.001 3.205-2.962 3.205-6.263zm6.049 0c0-4.024 1.253-8.65 6.144-8.65 4.939 0 6.047 4.578 6.047 8.65 0 4.048-1.181 8.505-6.071 8.505-5.036 0-6.12-4.433-6.12-8.505zm9.276 0c0-3.253-.723-6.385-3.181-6.385s-3.18 3.06-3.18 6.336.675 6.312 3.156 6.312c2.434.001 3.205-2.962 3.205-6.263zm6.048 0c0-4.024 1.253-8.65 6.144-8.65 4.939 0 6.047 4.578 6.047 8.65 0 4.048-1.181 8.505-6.071 8.505-5.036 0-6.12-4.433-6.12-8.505zm9.276 0c0-3.253-.723-6.385-3.181-6.385s-3.18 3.06-3.18 6.336.675 6.312 3.156 6.312c2.434.001 3.205-2.962 3.205-6.263zM289.187 197.688l6.77-10.071h3.735l-.024 9.758 2.578-.024v2.265h-2.602V204h-2.626v-4.385h-7.831v-1.927zm7.854-.29l.048-7.493-4.939 7.542 4.891-.049zm7.542-1.542c0-4.024 1.253-8.65 6.144-8.65 4.939 0 6.047 4.578 6.047 8.65 0 4.048-1.181 8.505-6.071 8.505-5.036 0-6.12-4.433-6.12-8.505zm9.276 0c0-3.253-.723-6.385-3.181-6.385s-3.18 3.06-3.18 6.336.675 6.312 3.156 6.312c2.434.002 3.205-2.962 3.205-6.263zm6.049 0c0-4.024 1.253-8.65 6.144-8.65 4.939 0 6.047 4.578 6.047 8.65 0 4.048-1.181 8.505-6.071 8.505-5.036 0-6.12-4.433-6.12-8.505zm9.276 0c0-3.253-.723-6.385-3.181-6.385s-3.18 3.06-3.18 6.336.675 6.312 3.156 6.312c2.434.002 3.205-2.962 3.205-6.263zm5.735 4.723l2.723-.265s.385 1.904 2.65 1.904c2.53 0 3.276-2.361 3.325-5.879-.578.916-1.614 1.976-3.566 1.976-3.084 0-5.349-2.024-5.349-5.493 0-3.542 2.578-5.614 5.614-5.614 3.807 0 5.975 2.41 5.975 7.59 0 6.746-1.518 9.589-6.047 9.589-4.747-.002-5.325-3.808-5.325-3.808zm8.433-7.758c0-2.024-1.156-3.566-3.036-3.566-1.903 0-3.036 1.542-3.036 3.566 0 2.048 1.132 3.493 3.036 3.493 1.783 0 3.036-1.397 3.036-3.493zM110.725 82.295l6.77-10.071h3.735l-.024 9.758 2.578-.024v2.265h-2.602v4.385h-2.626v-4.385h-7.831v-1.928zm7.854-.289l.048-7.493-4.939 7.541 4.891-.048zm7.494-1.012c0-5.108 1.976-9.18 6.433-9.18 4.53 0 5.108 3.663 5.108 3.638l-2.602.361c0 .024-.554-1.855-2.674-1.855-2.072 0-3.494 2-3.662 5.951.506-.916 1.662-2.265 4-2.265 2.963 0 5.156 2.096 5.156 5.686 0 3.686-2.674 5.662-5.614 5.662-4.723.001-6.145-3.782-6.145-7.998zm9.059 2.265c0-2.048-1.374-3.373-3.012-3.373s-3.012 1.325-3.012 3.373c0 2.096 1.181 3.566 3.012 3.566 2.097 0 3.012-1.735 3.012-3.566zm5.543-2.795c0-4.024 1.253-8.65 6.144-8.65 4.939 0 6.047 4.578 6.047 8.65 0 4.048-1.181 8.505-6.071 8.505-5.036 0-6.12-4.433-6.12-8.505zm9.276 0c0-3.253-.723-6.385-3.181-6.385s-3.18 3.06-3.18 6.336.675 6.312 3.156 6.312c2.434.001 3.205-2.962 3.205-6.263zm6.048 0c0-4.024 1.253-8.65 6.144-8.65 4.939 0 6.047 4.578 6.047 8.65 0 4.048-1.181 8.505-6.071 8.505-5.036 0-6.12-4.433-6.12-8.505zm9.276 0c0-3.253-.723-6.385-3.181-6.385s-3.18 3.06-3.18 6.336.675 6.312 3.156 6.312c2.434.001 3.205-2.962 3.205-6.263zM54.482 359.688l6.77-10.071h3.735l-.024 9.758 2.578-.024v2.265h-2.602V366h-2.626v-4.385h-7.831v-1.927zm7.854-.29l.048-7.493-4.939 7.541 4.891-.048zm6.579-9.71h10.432v2.072c-.554 1.012-4.023 7.445-6.409 14.239h-2.916c2.072-5.71 4.265-10.071 6.385-13.902h-7.493v-2.409zm12.794 8.168c0-4.024 1.253-8.65 6.144-8.65 4.939 0 6.047 4.578 6.047 8.65 0 4.048-1.181 8.505-6.071 8.505-5.035 0-6.12-4.433-6.12-8.505zm9.277 0c0-3.253-.723-6.385-3.181-6.385s-3.18 3.06-3.18 6.336.675 6.312 3.156 6.312c2.434.002 3.205-2.962 3.205-6.263zm6.048 0c0-4.024 1.253-8.65 6.144-8.65 4.939 0 6.047 4.578 6.047 8.65 0 4.048-1.181 8.505-6.071 8.505-5.036 0-6.12-4.433-6.12-8.505zm9.276 0c0-3.253-.723-6.385-3.181-6.385s-3.18 3.06-3.18 6.336.675 6.312 3.156 6.312c2.434.002 3.205-2.962 3.205-6.263z" fill="#231F20"/>
    <path fill="none" stroke="#000" stroke-width="2" d="M320 215v116m0-107h18m-36 9h36m-36 9h36m-36 9h36m-36 9h36m-36 9h36m-36 9h36m-36 9h36m-36 9h36m-36 9h36m-36 9h36m-36 9h18"/>
    <path fill="none" stroke="#231F20" stroke-width="2" d="M314.331 225.508l-3.63-4.092-3.63 4.092m18.559 95.402l3.625 4.09 3.632-4.09"/>
    <path fill="none" stroke="#000" stroke-width="2" d="M302 215h36v116h-36z"/>
    <path fill="none" stroke="#231F20" stroke-width="2" d="M528.245 404.012a5.592 5.592 0 0 0-5.594-5.593c-3.086 0-5.594 2.504-5.594 5.593s2.508 5.593 5.594 5.593a5.592 5.592 0 0 0 5.594-5.593zM523 430v17.7s-.349 2.3 2.313 2.3h.319s2.367.359 2.367-2.3V415M523 430v17.7c0 2.659-3.011 2.3-3.011 2.3h-.319c-2.661 0-2.67-2.3-2.67-2.3V415m.009 12.332c0 2.662-2.662 2.668-2.662 2.668h-.32c-2.661 0-3.026-2.675-3.026-2.675v-15.057c0-2.659 3.026-2.269 3.026-2.269h17.249c2.658 0 2.724 2.269 2.724 2.269v15.057c0 2.662-2.724 2.675-2.724 2.675h-.322c-2.66 0-2.66-2.665-2.66-2.665m-418.167-4.955l-1.089 4.385s-.639 2.582-3.221 1.942l-.311-.074s-2.584-.64-1.944-3.224l2.557-10.332.807-3.169C107.68 408.84 111.5 409 111.5 409h10.313s3.817-.16 4.569 2.908l.807 3.223 2.559 10.306c.64 2.584-1.947 3.21-1.947 3.21l-.31.067c-2.582.64-3.221-1.946-3.221-1.946l-1.087-4.386m-.931-19.194a5.596 5.596 0 0 0-5.593-5.595 5.592 5.592 0 1 0 0 11.186 5.592 5.592 0 0 0 5.593-5.591zM117 436v10.875s-.341 3.125-3.003 3.125h-.32s-2.677-.463-2.677-3.125V436h-4.146l5.541-21.646M117 436v10.875s-.341 3.125 2.32 3.125h.319s2.36-.463 2.36-3.125V436h4.464l-5.2-21.646M92 384v80h52v-80m353 0v80h52v-80"/>
</svg>
