<svg xmlns="http://www.w3.org/2000/svg" width="598" height="595" viewBox="0 0 598 595">
    <g id="rooms">
      <path data-room="5000" fill="#F5F5F5" d="M233 310h132v46H233z"/>
    </g>
    <path fill="none" stroke="#000" stroke-width="2" d="M59 20h480v142h-75v39h114v374H20V201h114v-39H59zm173 289h-65V200h266v109h-67"/>
    <path d="M232 200v157h134V200m0 38h67m-67 38h67M280 200v109m18-109v109m18-109v109m-18-100h18m-36 9h36m-36 9h36m-36 9h36m-36 9h36m-36 10h36m-36 9h36m-36 9h36m-36 9h36m-36 9h36m-36 9h18" fill="none" stroke="#000" stroke-width="2"/>
    <g fill="none" stroke="#000" stroke-width="2" stroke-linecap="square" stroke-linejoin="round">
        <path d="M417 361h1v1"/>
        <path stroke-dasharray="2,6" d="M418 368v182"/>
        <path d="M418 553v1h-1"/>
        <path stroke-dasharray="2,6" d="M411 554H180"/>
        <path d="M177 554h-1v-1"/>
        <path stroke-dasharray="2,6" d="M176 547V365"/>
        <path d="M176 362v-1h1"/>
        <path stroke-dasharray="2,6" d="M183 361h231"/>
    </g>
    <path d="M271.099 337.516l2.645-.291s.381 1.973 2.712 1.973c1.839 0 2.937-1.166 2.937-3.071 0-1.95-1.188-3.138-3.048-3.138-1.278 0-2.062.672-2.443 1.412l-2.488-.919.986-7.711 8.562-.067v2.219h-6.478l-.583 3.945c.561-.471 1.479-.964 3.093-.964 3.34 0 5.066 2.264 5.066 5.245 0 2.601-1.479 5.133-5.515 5.133-4.931 0-5.446-3.766-5.446-3.766zm13.493-4.146c0-3.743 1.166-8.047 5.716-8.047 4.595 0 5.626 4.259 5.626 8.047 0 3.766-1.098 7.912-5.648 7.912-4.685 0-5.694-4.124-5.694-7.912zm8.63 0c0-3.026-.673-5.94-2.959-5.94s-2.959 2.847-2.959 5.896.628 5.873 2.937 5.873c2.263-.001 2.981-2.759 2.981-5.829zm5.625 0c0-3.743 1.166-8.047 5.716-8.047 4.595 0 5.626 4.259 5.626 8.047 0 3.766-1.098 7.912-5.648 7.912-4.686 0-5.694-4.124-5.694-7.912zm8.63 0c0-3.026-.673-5.94-2.959-5.94s-2.959 2.847-2.959 5.896.628 5.873 2.937 5.873c2.263-.001 2.981-2.759 2.981-5.829zm5.625 0c0-3.743 1.166-8.047 5.716-8.047 4.595 0 5.626 4.259 5.626 8.047 0 3.766-1.098 7.912-5.648 7.912-4.686 0-5.694-4.124-5.694-7.912zm8.629 0c0-3.026-.673-5.94-2.959-5.94s-2.959 2.847-2.959 5.896.628 5.873 2.937 5.873c2.264-.001 2.981-2.759 2.981-5.829z" fill="#231F20"/>
    <path fill="none" stroke="#231F20" stroke-width="2" d="M292.331 210.508l-3.63-4.092-3.63 4.092m18.559 88.107l3.625 4.09 3.632-4.09m92.257-83.161l-5.576-6.386-5.572 6.386m.4 6.124l5.576 6.389 5.577-6.389m-.405 30.994l-5.576-6.386-5.572 6.386m.4 6.123l5.576 6.389 5.577-6.389m-.405 30.192l-5.576-6.387-5.572 6.387m.4 6.121l5.576 6.388 5.577-6.388"/>
    <path fill="none" stroke="#000" stroke-width="2" d="M270 309h56"/>
</svg>
