<svg xmlns="http://www.w3.org/2000/svg" width="1258" height="1082" viewBox="0 0 1258 1082">
    <g id="rooms" fill="#F5F5F5">
        <path data-room="1610" d="M277 140h125v188H277z"/>
        <path data-room="1600" d="M404 140h117v188H404z"/>
        <path data-room="1520" d="M677 140h233v99H677z"/>
        <path data-room="1500" d="M677 241h233v88H677z"/>
        <path data-room="1510" d="M912 140h58v189h-58z"/>
        <path data-room="1440" d="M752 367h100v165H752z"/>
        <path data-room="1740" d="M345 366h100v166H345z"/>
        <path data-room="1100" d="M21 742h116v282H21z"/>
        <path data-room="1110" d="M139 909h138v115H139z"/>
        <path data-room="1120" d="M139 742h138v165H139z"/>
        <path data-room="1200" d="M279 885h241v105H279z"/>
        <path data-room="1220" d="M676 885h239v105H676z"/>
        <path data-room="1300" d="M917 909h137v115H917z"/>
        <path data-room="1310" d="M1056 909h117v115h-117z"/>
        <path data-room="1320" d="M1056 742h117v165h-117z"/>
        <path data-room="1330" d="M917 742h137v165H917z"/>
        <path data-room="1000" d="M459 593h273v218H459z"/>
        <path data-room="B" d="M360 700h48v40h-48z"/>
        <path data-room="1700" d="M408 698h-50v42h-79V534h129z"/>
        <path data-room="1400" d="M786 534h129v165H786z"/>
        <path data-room="E" d="M786 701h129v39H786z"/>
        <path data-room="1006" d="M457 535h277v56H457z"/>
        <path data-room="1009" d="M523 331h152v78H523z"/>
        <path data-room="1003" d="M457 813h277v70H457z"/>
        <path data-room="1002" d="M522 885h152v105H522z"/>
        <path data-room="1012" d="M410 591h47v221h-47z"/>
        <path data-room="1005" d="M734 591h50v221h-50z"/>
    </g>
    <path fill="none" stroke="#231F20" stroke-width="2" d="M409 550v-17H278v208h131m507-41v41H785v116M676 330h75v204h-75zm75 165h-75m75-85h-75m75 43h-75m41.381-25.715l-6.365-7.289-6.363 7.289m.461 6.989l6.365 7.289 6.358-7.289m-.456 35.378l-6.365-7.289-6.363 7.289m.461 6.987l6.365 7.291 6.358-7.291m-.456 34.459l-6.365-7.293-6.363 7.293m.461 6.986l6.365 7.292 6.358-7.292M446 330h76v204h-76zm339 261v109h131V533H785v18"/>
    <g fill="none" stroke-width="2">
        <path stroke="#000" d="M597 418v116m0-107h18m-36 9h36m-36 9h36m-36 9h36m-36 9h36m-36 9h36m-36 9h36m-36 9h36m-36 9h36m-36 9h36m-36 9h36m-36 9h18"/>
        <path stroke="#231F20" d="M591.331 428.508l-3.63-4.092-3.63 4.092m18.559 95.402l3.625 4.09 3.632-4.09"/>
        <path stroke="#000" d="M579 418h36v116h-36z"/>
    </g>
    <g fill="none" stroke-width="2">
        <path stroke="#000" d="M296 741v97m0-88h18m-36 9h36m-36 9h36m-36 9h36m-36 9h36m-36 9h36m-36 9h36m-36 9h36m-36 8h36m-36 9h18"/>
        <path stroke="#231F20" d="M290.331 751.508l-3.63-4.092-3.63 4.092m18.559 76.402l3.625 4.09 3.632-4.09"/>
        <path stroke="#000" d="M278 741h36v97h-36z"/>
    </g>
    <g fill="none" stroke-width="2">
        <path stroke="#000" d="M898 741v97m0-88h18m-36 9h36m-36 9h36m-36 9h36m-36 9h36m-36 9h36m-36 9h36m-36 9h36m-36 8h36m-36 9h18"/>
        <path stroke="#231F20" d="M892.331 751.508l-3.63-4.092-3.63 4.092m18.559 76.402l3.625 4.09 3.632-4.09"/>
        <path stroke="#000" d="M880 741h36v97h-36z"/>
    </g>
    <g fill="none" stroke="#231F20" stroke-width="2" stroke-linecap="square">
        <path d="M733 593v-1h-1"/>
        <path stroke-dasharray="2.0222,6.0667" d="M725.934 592H462.033"/>
        <path d="M459 592h-1v1"/>
        <path stroke-dasharray="1.964,5.8919" d="M458 598.892v209.162"/>
        <path d="M458 811v1h1"/>
        <path stroke-dasharray="2.0222,6.0667" d="M465.067 812h263.9"/>
        <path d="M732 812h1v-1"/>
        <path stroke-dasharray="1.964,5.8919" d="M733 805.108V595.946"/>
    </g>
    <path fill="none" stroke="#231F20" stroke-width="2" d="M578 410h38M403 173v117m314-50h154M521 991V884M138 784v195m140-122V741H20v284h258v-34h638v34h258V741H916v116m-771 51h133m638 0h139m-380 83V884"/>
    <path fill="none" stroke="#231F20" stroke-width="2" d="M541 1016h89v42h-89zm0 7h89m-89 7h89m-89 7h89m-89 7h89m-89 7h89m343-941H211.27L87 286.131V330h324v35h-67v168m509 1V366h-67v-36h185V139H676v190m-400 0V139h246v190"/>
    <path fill="none" stroke="#231F20" stroke-width="2" d="M522 215h52v115h-52zm102 0h52v115h-52zm-51-105h50v54h-50zm0 9h50.836M573 128h50m-50 9h50m-50 9h50m-50 9h50M573 20h50v54h-50zm0 9h50.836M573 38h50m-50 9h50m-50 9h50m-50 9h50M47 908h60m948-124v194m55-70h63M409 699h-50v42h50M213 74h759M592.6 216.155l6.363 7.295 6.363-7.295M599 222.476V181.03m5.33 734.51l-6.364-7.295-6.366 7.295M598 909v41"/>
    <path d="M182.973 825.004c-.87.639-2.124 1.125-3.199 1.229l-.307-2.508c1.587-.23 2.892-1.102 3.608-2.125h2.84V839h-3.045l.103-13.996zm10.616 0c-.87.639-2.124 1.125-3.199 1.229l-.307-2.508c1.587-.23 2.892-1.102 3.608-2.125h2.84V839h-3.045l.103-13.996zm7.469 11.848c3.147-3.045 8.291-8.111 8.291-10.799 0-1.383-.717-2.482-2.533-2.508-2.073 0-2.559 1.74-2.636 2.764l-3.02-.281c.256-2.125 1.766-4.863 5.834-4.863 2.917 0 5.425 1.51 5.425 4.812 0 3.658-4.555 7.932-7.498 10.594l7.754-.053V839h-11.618v-2.148zm14.556-6.5c0-4.273 1.331-9.188 6.525-9.188 5.246 0 6.423 4.863 6.423 9.188 0 4.299-1.254 9.033-6.448 9.033-5.348 0-6.5-4.709-6.5-9.033zm9.852 0c0-3.455-.768-6.781-3.378-6.781-2.61 0-3.377 3.25-3.377 6.73s.716 6.703 3.352 6.703c2.584 0 3.403-3.147 3.403-6.652zM316.606 667.003c-.87.64-2.124 1.126-3.199 1.229l-.307-2.508c1.587-.23 2.892-1.101 3.608-2.124h2.84V681h-3.045l.103-13.997zm6.65-3.327h11.08v2.201c-.588 1.074-4.273 7.907-6.807 15.123h-3.096c2.201-6.064 4.529-10.696 6.781-14.765h-7.958v-2.559zm13.584 8.675c0-4.273 1.331-9.187 6.525-9.187 5.246 0 6.423 4.862 6.423 9.187 0 4.299-1.254 9.033-6.448 9.033-5.348 0-6.5-4.708-6.5-9.033zm9.852 0c0-3.454-.768-6.78-3.378-6.78-2.61 0-3.377 3.249-3.377 6.729s.716 6.704 3.352 6.704c2.584 0 3.403-3.148 3.403-6.653zm6.418 0c0-4.273 1.331-9.187 6.525-9.187 5.246 0 6.423 4.862 6.423 9.187 0 4.299-1.254 9.033-6.448 9.033-5.348 0-6.5-4.708-6.5-9.033zm9.852 0c0-3.454-.768-6.78-3.378-6.78-2.61 0-3.377 3.249-3.377 6.729s.716 6.704 3.352 6.704c2.584 0 3.403-3.148 3.403-6.653zM826.605 667.003c-.869.64-2.123 1.126-3.198 1.229l-.308-2.508c1.588-.23 2.893-1.101 3.609-2.124h2.84V681h-3.045l.102-13.997zm6.523 7.293l7.19-10.696h3.967l-.025 10.363 2.737-.025v2.405h-2.764V681h-2.789v-4.657h-8.316v-2.047zm8.343-.308l.051-7.958-5.246 8.01 5.195-.052zm8.004-1.637c0-4.273 1.331-9.187 6.525-9.187 5.246 0 6.423 4.862 6.423 9.187 0 4.299-1.254 9.033-6.448 9.033-5.348 0-6.5-4.708-6.5-9.033zm9.851 0c0-3.454-.768-6.78-3.377-6.78-2.61 0-3.378 3.249-3.378 6.729s.716 6.704 3.353 6.704c2.584 0 3.402-3.148 3.402-6.653zm6.418 0c0-4.273 1.332-9.187 6.525-9.187 5.246 0 6.424 4.862 6.424 9.187 0 4.299-1.254 9.033-6.449 9.033-5.348 0-6.5-4.708-6.5-9.033zm9.853 0c0-3.454-.768-6.78-3.378-6.78-2.609 0-3.377 3.249-3.377 6.729s.716 6.704 3.352 6.704c2.583 0 3.403-3.148 3.403-6.653zM54.043 951.003c-.87.64-2.124 1.126-3.199 1.229l-.307-2.508c1.587-.23 2.892-1.101 3.608-2.124h2.84V965H53.94l.103-13.997zm10.617 0c-.87.64-2.124 1.126-3.199 1.229l-.307-2.508c1.587-.23 2.892-1.101 3.608-2.124h2.84V965h-3.045l.103-13.997zm7.673 5.348c0-4.273 1.331-9.187 6.525-9.187 5.246 0 6.423 4.862 6.423 9.187 0 4.299-1.254 9.033-6.448 9.033-5.348 0-6.5-4.708-6.5-9.033zm9.852 0c0-3.454-.768-6.78-3.378-6.78-2.61 0-3.377 3.249-3.377 6.729s.716 6.704 3.352 6.704c2.584 0 3.403-3.148 3.403-6.653zm6.418 0c0-4.273 1.331-9.187 6.525-9.187 5.246 0 6.423 4.862 6.423 9.187 0 4.299-1.254 9.033-6.448 9.033-5.349 0-6.5-4.708-6.5-9.033zm9.852 0c0-3.454-.768-6.78-3.378-6.78-2.61 0-3.377 3.249-3.377 6.729s.716 6.704 3.352 6.704c2.584 0 3.403-3.148 3.403-6.653zM182.973 951.003c-.87.64-2.124 1.126-3.199 1.229l-.307-2.508c1.587-.23 2.892-1.101 3.608-2.124h2.84V965h-3.045l.103-13.997zm10.616 0c-.87.64-2.124 1.126-3.199 1.229l-.307-2.508c1.587-.23 2.892-1.101 3.608-2.124h2.84V965h-3.045l.103-13.997zm10.617 0c-.87.64-2.124 1.126-3.199 1.229l-.307-2.508c1.587-.23 2.892-1.101 3.608-2.124h2.84V965h-3.045l.103-13.997zm7.673 5.348c0-4.273 1.331-9.187 6.525-9.187 5.246 0 6.423 4.862 6.423 9.187 0 4.299-1.254 9.033-6.448 9.033-5.348 0-6.5-4.708-6.5-9.033zm9.852 0c0-3.454-.768-6.78-3.378-6.78-2.61 0-3.377 3.249-3.377 6.729s.716 6.704 3.352 6.704c2.584 0 3.403-3.148 3.403-6.653zM371.204 932.495c-.87.64-2.124 1.126-3.199 1.229l-.307-2.508c1.587-.23 2.892-1.101 3.608-2.124h2.84v17.4h-3.045l.103-13.997zm7.468 11.848c3.147-3.045 8.291-8.111 8.291-10.799 0-1.382-.717-2.481-2.533-2.508-2.073 0-2.559 1.74-2.636 2.764l-3.02-.281c.256-2.124 1.766-4.862 5.834-4.862 2.917 0 5.425 1.51 5.425 4.812 0 3.659-4.555 7.933-7.498 10.594l7.754-.052v2.482h-11.618v-2.15zm14.556-6.5c0-4.273 1.331-9.187 6.525-9.187 5.246 0 6.423 4.862 6.423 9.187 0 4.299-1.254 9.033-6.448 9.033-5.348 0-6.5-4.708-6.5-9.033zm9.852 0c0-3.454-.768-6.78-3.378-6.78-2.61 0-3.377 3.249-3.377 6.729s.716 6.704 3.352 6.704c2.584 0 3.403-3.147 3.403-6.653zm6.418 0c0-4.273 1.331-9.187 6.525-9.187 5.246 0 6.423 4.862 6.423 9.187 0 4.299-1.254 9.033-6.448 9.033-5.349 0-6.5-4.708-6.5-9.033zm9.852 0c0-3.454-.768-6.78-3.378-6.78-2.61 0-3.377 3.249-3.377 6.729s.716 6.704 3.352 6.704c2.584 0 3.403-3.147 3.403-6.653zM574.724 845.003c-.87.64-2.124 1.126-3.199 1.229l-.307-2.508c1.587-.23 2.892-1.101 3.608-2.124h2.84V859h-3.045l.103-13.997zm7.673 5.348c0-4.273 1.331-9.187 6.525-9.187 5.246 0 6.423 4.862 6.423 9.187 0 4.299-1.254 9.033-6.448 9.033-5.348 0-6.5-4.708-6.5-9.033zm9.853 0c0-3.454-.768-6.78-3.378-6.78-2.61 0-3.377 3.249-3.377 6.729s.716 6.704 3.352 6.704c2.584 0 3.403-3.148 3.403-6.653zm6.418 0c0-4.273 1.33-9.187 6.525-9.187 5.245 0 6.422 4.862 6.422 9.187 0 4.299-1.254 9.033-6.447 9.033-5.349 0-6.5-4.708-6.5-9.033zm9.852 0c0-3.454-.768-6.78-3.378-6.78s-3.378 3.249-3.378 6.729.717 6.704 3.353 6.704c2.584 0 3.403-3.148 3.403-6.653zm5.625 4.401l2.942-.281c-.052.307.485 2.61 3.173 2.61 2.072 0 3.225-1.306 3.225-3.045 0-2.021-1.279-3.455-4.734-3.199v-2.328c2.994.256 4.273-.998 4.273-2.713 0-1.458-1.074-2.405-2.61-2.431-2.712 0-2.942 2.328-2.942 2.38l-2.738-.308s.332-4.273 5.681-4.273c2.994 0 5.579 1.331 5.579 4.479 0 1.868-1.05 3.147-2.611 3.915 2.022.768 3.148 2.329 3.148 4.401 0 3.736-3.02 5.425-6.142 5.425-5.989 0-6.244-4.632-6.244-4.632zM573.88 561.003c-.87.64-2.124 1.126-3.199 1.229l-.307-2.508c1.587-.23 2.892-1.101 3.608-2.124h2.84V575h-3.045l.103-13.997zm7.674 5.348c0-4.273 1.331-9.187 6.525-9.187 5.246 0 6.423 4.862 6.423 9.187 0 4.299-1.254 9.033-6.448 9.033-5.348 0-6.5-4.708-6.5-9.033zm9.852 0c0-3.454-.768-6.78-3.378-6.78-2.61 0-3.377 3.249-3.377 6.729s.716 6.704 3.352 6.704c2.584 0 3.403-3.148 3.403-6.653zm6.418 0c0-4.273 1.331-9.187 6.526-9.187 5.245 0 6.422 4.862 6.422 9.187 0 4.299-1.254 9.033-6.447 9.033-5.349 0-6.501-4.708-6.501-9.033zm9.852 0c0-3.454-.768-6.78-3.378-6.78s-3.378 3.249-3.378 6.729.717 6.704 3.353 6.704c2.584 0 3.403-3.148 3.403-6.653zm6.367.563c0-5.425 2.098-9.75 6.832-9.75 4.811 0 5.424 3.89 5.424 3.864l-2.764.384c0 .025-.588-1.971-2.84-1.971-2.201 0-3.711 2.124-3.89 6.321.538-.973 1.767-2.405 4.248-2.405 3.147 0 5.476 2.226 5.476 6.039 0 3.915-2.84 6.013-5.962 6.013-5.014 0-6.524-4.017-6.524-8.495zm9.621 2.405c0-2.175-1.459-3.583-3.199-3.583s-3.198 1.408-3.198 3.583c0 2.227 1.254 3.787 3.198 3.787 2.226 0 3.199-1.842 3.199-3.787zM574.11 365.003c-.87.64-2.124 1.126-3.199 1.229l-.307-2.508c1.587-.23 2.892-1.101 3.608-2.124h2.84V379h-3.045l.103-13.997zm7.674 5.348c0-4.273 1.331-9.187 6.525-9.187 5.246 0 6.423 4.862 6.423 9.187 0 4.299-1.254 9.033-6.448 9.033-5.348 0-6.5-4.708-6.5-9.033zm9.852 0c0-3.454-.768-6.78-3.378-6.78-2.61 0-3.377 3.249-3.377 6.729s.716 6.704 3.352 6.704c2.584 0 3.403-3.148 3.403-6.653zm6.417 0c0-4.273 1.332-9.187 6.525-9.187 5.246 0 6.424 4.862 6.424 9.187 0 4.299-1.254 9.033-6.449 9.033-5.348 0-6.5-4.708-6.5-9.033zm9.852 0c0-3.454-.768-6.78-3.378-6.78-2.609 0-3.377 3.249-3.377 6.729s.716 6.704 3.352 6.704c2.584 0 3.403-3.148 3.403-6.653zm6.085 5.015l2.893-.281s.409 2.021 2.814 2.021c2.687 0 3.48-2.508 3.531-6.244-.614.973-1.715 2.099-3.787 2.099-3.275 0-5.682-2.149-5.682-5.834 0-3.762 2.738-5.963 5.963-5.963 4.043 0 6.346 2.56 6.346 8.061 0 7.165-1.611 10.185-6.422 10.185-5.041-.001-5.656-4.044-5.656-4.044zm8.957-8.239c0-2.149-1.229-3.787-3.225-3.787-2.021 0-3.225 1.638-3.225 3.787 0 2.175 1.203 3.71 3.225 3.71 1.894 0 3.225-1.484 3.225-3.71zM573.061 697.003c-.87.64-2.124 1.126-3.199 1.229l-.307-2.508c1.587-.23 2.892-1.101 3.608-2.124h2.84V711h-3.045l.103-13.997zm7.673 5.348c0-4.273 1.331-9.187 6.525-9.187 5.246 0 6.423 4.862 6.423 9.187 0 4.299-1.254 9.033-6.448 9.033-5.348 0-6.5-4.708-6.5-9.033zm9.852 0c0-3.454-.768-6.78-3.378-6.78-2.61 0-3.377 3.249-3.377 6.729s.716 6.704 3.352 6.704c2.585 0 3.403-3.148 3.403-6.653zm6.418 0c0-4.273 1.331-9.187 6.525-9.187 5.246 0 6.423 4.862 6.423 9.187 0 4.299-1.254 9.033-6.448 9.033-5.348 0-6.5-4.708-6.5-9.033zm9.851 0c0-3.454-.768-6.78-3.377-6.78-2.61 0-3.378 3.249-3.378 6.729s.716 6.704 3.353 6.704c2.584 0 3.402-3.148 3.402-6.653zm6.418 0c0-4.273 1.332-9.187 6.525-9.187 5.246 0 6.424 4.862 6.424 9.187 0 4.299-1.254 9.033-6.449 9.033-5.347 0-6.5-4.708-6.5-9.033zm9.853 0c0-3.454-.768-6.78-3.378-6.78-2.609 0-3.377 3.249-3.377 6.729s.716 6.704 3.352 6.704c2.584 0 3.403-3.148 3.403-6.653zM430.003 666.352c.64.869 1.126 2.123 1.229 3.198l-2.508.308c-.23-1.588-1.101-2.893-2.124-3.609v-2.84H444v3.045l-13.997-.102zm5.348-7.674c-4.273 0-9.187-1.331-9.187-6.525 0-5.246 4.862-6.423 9.187-6.423 4.299 0 9.033 1.254 9.033 6.448 0 5.347-4.708 6.5-9.033 6.5zm0-9.852c-3.454 0-6.78.768-6.78 3.377 0 2.61 3.249 3.378 6.729 3.378s6.704-.716 6.704-3.353c0-2.583-3.148-3.402-6.653-3.402zm-5.348-9.361c.64.871 1.126 2.125 1.229 3.199l-2.508.307c-.23-1.586-1.101-2.891-2.124-3.607v-2.841H444v3.045l-13.997-.103zm11.848-7.469c-3.045-3.146-8.111-8.291-10.799-8.291-1.382 0-2.481.717-2.508 2.533 0 2.073 1.74 2.56 2.764 2.637l-.281 3.02c-2.124-.256-4.862-1.766-4.862-5.834 0-2.918 1.51-5.426 4.812-5.426 3.659 0 7.933 4.555 10.594 7.498l-.052-7.754H444v11.617h-2.149zM762.997 623.605c-.64-.869-1.126-2.123-1.229-3.198l2.508-.308c.23 1.588 1.101 2.893 2.124 3.609v2.84H749v-3.045l13.997.102zm-5.348 7.674c4.273 0 9.187 1.331 9.187 6.525 0 5.246-4.862 6.423-9.187 6.423-4.299 0-9.033-1.254-9.033-6.448 0-5.347 4.708-6.5 9.033-6.5zm0 9.852c3.454 0 6.78-.768 6.78-3.377 0-2.61-3.249-3.378-6.729-3.378s-6.704.716-6.704 3.353c0 2.583 3.148 3.402 6.653 3.402zm0 6.418c4.273 0 9.187 1.331 9.187 6.525 0 5.246-4.862 6.423-9.187 6.423-4.299 0-9.033-1.254-9.033-6.448 0-5.348 4.708-6.5 9.033-6.5zm0 9.851c3.454 0 6.78-.768 6.78-3.377 0-2.61-3.249-3.378-6.729-3.378s-6.704.716-6.704 3.353c0 2.584 3.148 3.402 6.653 3.402zm-4.734 6.009l.333 3.02s-2.252.435-2.252 3.097c0 2.098 1.33 3.352 3.506 3.352 2.226 0 3.582-1.355 3.582-3.48 0-1.458-.768-2.354-1.612-2.789l1.05-2.84 8.803 1.125.076 9.775h-2.533v-7.395l-4.504-.666c.538.641 1.101 1.689 1.101 3.531 0 3.812-2.585 5.783-5.988 5.783-2.968 0-5.859-1.688-5.859-6.295-.002-5.629 4.297-6.218 4.297-6.218zM374.071 443.062c-.87.64-2.124 1.126-3.199 1.228l-.307-2.508c1.587-.23 2.892-1.1 3.608-2.124h2.84v17.4h-3.045l.103-13.996zm6.394-3.327h11.08v2.201c-.588 1.075-4.273 7.907-6.807 15.123h-3.096c2.201-6.064 4.529-10.696 6.781-14.765h-7.958v-2.559zm12.075 10.619l7.19-10.696h3.966l-.025 10.363 2.738-.025v2.405h-2.764v4.657h-2.789v-4.657h-8.316v-2.047zm8.342-.307l.051-7.958-5.246 8.01 5.195-.052zm8.004-1.637c0-4.273 1.331-9.187 6.525-9.187 5.246 0 6.423 4.862 6.423 9.187 0 4.299-1.254 9.033-6.448 9.033-5.348-.001-6.5-4.709-6.5-9.033zm9.852 0c0-3.455-.768-6.781-3.378-6.781-2.61 0-3.377 3.25-3.377 6.73s.716 6.704 3.352 6.704c2.584-.001 3.403-3.148 3.403-6.653zM770.079 277.854c-.87.64-2.124 1.126-3.199 1.228l-.307-2.508c1.586-.23 2.892-1.1 3.607-2.124h2.841v17.4h-3.045l.103-13.996zm7.264 10.083l3.02-.333s.435 2.251 3.097 2.251c2.098 0 3.352-1.331 3.352-3.505 0-2.227-1.356-3.583-3.48-3.583-1.458 0-2.354.768-2.789 1.612l-2.84-1.049 1.126-8.803 9.774-.077v2.533h-7.395l-.666 4.503c.64-.537 1.689-1.1 3.531-1.1 3.813 0 5.783 2.584 5.783 5.988 0 2.968-1.688 5.86-6.295 5.86-5.629.001-6.218-4.297-6.218-4.297zm15.4-4.734c0-4.273 1.331-9.187 6.525-9.187 5.246 0 6.423 4.862 6.423 9.187 0 4.299-1.254 9.033-6.448 9.033-5.348-.001-6.5-4.709-6.5-9.033zm9.852 0c0-3.455-.768-6.781-3.377-6.781-2.61 0-3.378 3.25-3.378 6.73s.716 6.704 3.352 6.704c2.584-.001 3.403-3.148 3.403-6.653zm6.418 0c0-4.273 1.331-9.187 6.525-9.187 5.246 0 6.423 4.862 6.423 9.187 0 4.299-1.254 9.033-6.448 9.033-5.349-.001-6.5-4.709-6.5-9.033zm9.851 0c0-3.455-.768-6.781-3.377-6.781-2.61 0-3.378 3.25-3.378 6.73s.716 6.704 3.352 6.704c2.585-.001 3.403-3.148 3.403-6.653zM943.997 216.882c-.64-.87-1.126-2.124-1.228-3.199l2.508-.307c.229 1.586 1.1 2.892 2.123 3.607v2.841H930v-3.045l13.997.103zm-10.082 7.264l.333 3.02s-2.252.435-2.252 3.097c0 2.098 1.33 3.352 3.506 3.352 2.227 0 3.582-1.356 3.582-3.48 0-1.458-.768-2.354-1.611-2.789l1.049-2.84 8.803 1.126.076 9.774h-2.533v-7.395l-4.504-.666c.537.64 1.101 1.689 1.101 3.531 0 3.813-2.585 5.783-5.987 5.783-2.969 0-5.86-1.688-5.86-6.295-.002-5.63 4.297-6.218 4.297-6.218zm10.082 18.241c-.64-.87-1.126-2.124-1.228-3.199l2.508-.307c.229 1.586 1.1 2.892 2.123 3.607v2.841H930v-3.045l13.997.103zm-5.349 7.673c4.273 0 9.188 1.331 9.188 6.525 0 5.246-4.862 6.423-9.188 6.423-4.299 0-9.032-1.254-9.032-6.448 0-5.349 4.708-6.5 9.032-6.5zm0 9.851c3.455 0 6.781-.768 6.781-3.377 0-2.61-3.25-3.378-6.729-3.378s-6.704.716-6.704 3.352c0 2.585 3.148 3.403 6.652 3.403zM303.258 231.937c-.87.64-2.124 1.126-3.199 1.228l-.307-2.508c1.587-.23 2.892-1.1 3.608-2.124h2.84v17.4h-3.045l.103-13.996zm7.623 5.911c0-5.425 2.098-9.75 6.832-9.75 4.811 0 5.425 3.89 5.425 3.864l-2.764.384c0 .026-.588-1.97-2.84-1.97-2.201 0-3.71 2.124-3.89 6.32.538-.972 1.766-2.405 4.248-2.405 3.147 0 5.476 2.226 5.476 6.039 0 3.915-2.84 6.013-5.962 6.013-5.015 0-6.525-4.017-6.525-8.495zm9.621 2.405c0-2.175-1.458-3.583-3.198-3.583s-3.199 1.407-3.199 3.583c0 2.226 1.254 3.787 3.199 3.787 2.226 0 3.198-1.842 3.198-3.787zm8.721-8.316c-.87.64-2.124 1.126-3.199 1.228l-.307-2.508c1.587-.23 2.892-1.1 3.608-2.124h2.84v17.4h-3.045l.103-13.996zm7.673 5.348c0-4.273 1.331-9.187 6.525-9.187 5.246 0 6.423 4.862 6.423 9.187 0 4.299-1.254 9.033-6.448 9.033-5.348-.001-6.5-4.709-6.5-9.033zm9.853 0c0-3.455-.768-6.781-3.378-6.781-2.61 0-3.377 3.25-3.377 6.73s.716 6.704 3.352 6.704c2.584 0 3.403-3.148 3.403-6.653zM433.653 230.655c-.87.64-2.124 1.126-3.199 1.228l-.307-2.508c1.587-.23 2.892-1.1 3.608-2.124h2.84v17.4h-3.045l.103-13.996zm7.622 5.911c0-5.425 2.098-9.75 6.832-9.75 4.811 0 5.425 3.89 5.425 3.864l-2.764.384c0 .026-.588-1.97-2.84-1.97-2.201 0-3.71 2.124-3.89 6.32.538-.972 1.766-2.405 4.248-2.405 3.147 0 5.476 2.226 5.476 6.039 0 3.915-2.84 6.013-5.962 6.013-5.015.001-6.525-4.017-6.525-8.495zm9.621 2.406c0-2.175-1.458-3.583-3.198-3.583s-3.199 1.407-3.199 3.583c0 2.226 1.254 3.787 3.199 3.787 2.226 0 3.198-1.842 3.198-3.787zm5.881-2.969c0-4.273 1.331-9.187 6.525-9.187 5.246 0 6.423 4.862 6.423 9.187 0 4.299-1.254 9.033-6.448 9.033-5.348 0-6.5-4.708-6.5-9.033zm9.852 0c0-3.455-.768-6.781-3.378-6.781-2.61 0-3.377 3.25-3.377 6.73s.716 6.704 3.352 6.704c2.585 0 3.403-3.147 3.403-6.653zm6.418 0c0-4.273 1.331-9.187 6.525-9.187 5.246 0 6.423 4.862 6.423 9.187 0 4.299-1.254 9.033-6.448 9.033-5.348 0-6.5-4.708-6.5-9.033zm9.852 0c0-3.455-.768-6.781-3.378-6.781-2.61 0-3.377 3.25-3.377 6.73s.716 6.704 3.352 6.704c2.584 0 3.403-3.147 3.403-6.653zM770.079 183.46c-.87.64-2.124 1.126-3.199 1.228l-.307-2.508c1.586-.23 2.892-1.1 3.607-2.124h2.841v17.4h-3.045l.103-13.996zm7.264 10.082l3.02-.333s.435 2.251 3.097 2.251c2.098 0 3.352-1.331 3.352-3.505 0-2.227-1.356-3.583-3.48-3.583-1.458 0-2.354.768-2.789 1.612l-2.84-1.049 1.126-8.803 9.774-.077v2.533h-7.395l-.666 4.503c.64-.537 1.689-1.1 3.531-1.1 3.813 0 5.783 2.584 5.783 5.988 0 2.968-1.688 5.86-6.295 5.86-5.629.002-6.218-4.297-6.218-4.297zm14.94 1.766c3.147-3.045 8.29-8.112 8.29-10.799 0-1.382-.716-2.482-2.533-2.507-2.072 0-2.559 1.74-2.636 2.763l-3.02-.281c.256-2.124 1.766-4.862 5.835-4.862 2.917 0 5.425 1.51 5.425 4.811 0 3.659-4.555 7.933-7.498 10.594l7.754-.051v2.482h-11.617v-2.15zm14.555-6.5c0-4.273 1.331-9.187 6.525-9.187 5.246 0 6.423 4.862 6.423 9.187 0 4.299-1.254 9.033-6.448 9.033-5.349 0-6.5-4.709-6.5-9.033zm9.851 0c0-3.455-.768-6.781-3.377-6.781-2.61 0-3.378 3.25-3.378 6.73s.716 6.704 3.352 6.704c2.585 0 3.403-3.148 3.403-6.653zM958.868 952.452c-.87.64-2.124 1.126-3.199 1.229l-.307-2.508c1.586-.23 2.892-1.101 3.607-2.124h2.841v17.4h-3.045l.103-13.997zm6.88 9.749l2.942-.281c-.051.307.486 2.61 3.173 2.61 2.073 0 3.225-1.306 3.225-3.045 0-2.021-1.279-3.455-4.734-3.199v-2.328c2.994.256 4.273-.998 4.273-2.713 0-1.458-1.074-2.405-2.609-2.431-2.713 0-2.943 2.328-2.943 2.38l-2.737-.308s.332-4.273 5.681-4.273c2.993 0 5.578 1.331 5.578 4.479 0 1.868-1.049 3.147-2.61 3.915 2.021.768 3.147 2.329 3.147 4.401 0 3.736-3.02 5.425-6.142 5.425-5.988 0-6.244-4.632-6.244-4.632zm15.4-4.401c0-4.273 1.331-9.187 6.525-9.187 5.246 0 6.423 4.862 6.423 9.187 0 4.299-1.254 9.033-6.448 9.033-5.348 0-6.5-4.708-6.5-9.033zm9.852 0c0-3.454-.768-6.78-3.377-6.78-2.61 0-3.378 3.249-3.378 6.729s.716 6.704 3.352 6.704c2.585 0 3.403-3.147 3.403-6.653zm6.418 0c0-4.273 1.331-9.187 6.525-9.187 5.246 0 6.423 4.862 6.423 9.187 0 4.299-1.254 9.033-6.448 9.033-5.349 0-6.5-4.708-6.5-9.033zm9.852 0c0-3.454-.768-6.78-3.377-6.78-2.61 0-3.378 3.249-3.378 6.729s.716 6.704 3.352 6.704c2.584 0 3.403-3.147 3.403-6.653zM961.173 825.004c-.87.639-2.124 1.125-3.199 1.229l-.307-2.508c1.586-.23 2.892-1.102 3.607-2.125h2.841V839h-3.045l.103-13.996zm6.88 9.748l2.942-.281c-.051.307.486 2.611 3.173 2.611 2.073 0 3.225-1.307 3.225-3.045 0-2.021-1.279-3.455-4.734-3.199v-2.328c2.994.256 4.273-.998 4.273-2.713 0-1.459-1.074-2.406-2.609-2.432-2.713 0-2.943 2.328-2.943 2.381l-2.737-.309s.332-4.273 5.681-4.273c2.993 0 5.578 1.332 5.578 4.479 0 1.869-1.049 3.148-2.61 3.916 2.021.768 3.147 2.328 3.147 4.4 0 3.736-3.02 5.426-6.142 5.426-5.988 0-6.244-4.633-6.244-4.633zm14.607 0l2.942-.281c-.051.307.486 2.611 3.173 2.611 2.073 0 3.225-1.307 3.225-3.045 0-2.021-1.279-3.455-4.734-3.199v-2.328c2.994.256 4.273-.998 4.273-2.713 0-1.459-1.074-2.406-2.609-2.432-2.713 0-2.943 2.328-2.943 2.381l-2.737-.309s.332-4.273 5.681-4.273c2.993 0 5.578 1.332 5.578 4.479 0 1.869-1.049 3.148-2.61 3.916 2.021.768 3.147 2.328 3.147 4.4 0 3.736-3.02 5.426-6.142 5.426-5.988 0-6.244-4.633-6.244-4.633zm15.401-4.4c0-4.273 1.331-9.188 6.525-9.188 5.246 0 6.423 4.863 6.423 9.188 0 4.299-1.254 9.033-6.448 9.033-5.349 0-6.5-4.709-6.5-9.033zm9.851 0c0-3.455-.768-6.781-3.377-6.781-2.61 0-3.378 3.25-3.378 6.73s.716 6.703 3.352 6.703c2.585 0 3.403-3.147 3.403-6.652zM1090.106 952.452c-.87.64-2.124 1.126-3.199 1.229l-.307-2.508c1.586-.23 2.892-1.101 3.607-2.124h2.841v17.4h-3.045l.103-13.997zm6.88 9.749l2.942-.281c-.051.307.486 2.61 3.173 2.61 2.073 0 3.225-1.306 3.225-3.045 0-2.021-1.279-3.455-4.734-3.199v-2.328c2.994.256 4.273-.998 4.273-2.713 0-1.458-1.074-2.405-2.609-2.431-2.713 0-2.943 2.328-2.943 2.38l-2.737-.308s.332-4.273 5.681-4.273c2.993 0 5.578 1.331 5.578 4.479 0 1.868-1.049 3.147-2.61 3.915 2.021.768 3.147 2.329 3.147 4.401 0 3.736-3.02 5.425-6.142 5.425-5.988 0-6.244-4.632-6.244-4.632zm18.344-9.749c-.87.64-2.124 1.126-3.199 1.229l-.307-2.508c1.586-.23 2.892-1.101 3.607-2.124h2.841v17.4h-3.045l.103-13.997zm7.673 5.348c0-4.273 1.331-9.187 6.525-9.187 5.246 0 6.423 4.862 6.423 9.187 0 4.299-1.254 9.033-6.448 9.033-5.349 0-6.5-4.708-6.5-9.033zm9.851 0c0-3.454-.768-6.78-3.377-6.78-2.61 0-3.378 3.249-3.378 6.729s.716 6.704 3.352 6.704c2.585 0 3.403-3.147 3.403-6.653zM1083.763 825.004c-.87.639-2.124 1.125-3.199 1.229l-.307-2.508c1.586-.23 2.892-1.102 3.607-2.125h2.841V839h-3.045l.103-13.996zm6.88 9.748l2.942-.281c-.051.307.486 2.611 3.173 2.611 2.073 0 3.225-1.307 3.225-3.045 0-2.021-1.279-3.455-4.734-3.199v-2.328c2.994.256 4.273-.998 4.273-2.713 0-1.459-1.074-2.406-2.609-2.432-2.713 0-2.943 2.328-2.943 2.381l-2.737-.309s.332-4.273 5.681-4.273c2.993 0 5.578 1.332 5.578 4.479 0 1.869-1.049 3.148-2.61 3.916 2.021.768 3.147 2.328 3.147 4.4 0 3.736-3.02 5.426-6.142 5.426-5.989 0-6.244-4.633-6.244-4.633zm14.837 2.1c3.147-3.045 8.29-8.111 8.29-10.799 0-1.383-.716-2.482-2.533-2.508-2.072 0-2.559 1.74-2.636 2.764l-3.02-.281c.256-2.125 1.766-4.863 5.835-4.863 2.917 0 5.425 1.51 5.425 4.812 0 3.658-4.555 7.932-7.498 10.594l7.754-.053V839h-11.617v-2.148zm14.556-6.5c0-4.273 1.331-9.188 6.525-9.188 5.246 0 6.423 4.863 6.423 9.188 0 4.299-1.254 9.033-6.448 9.033-5.348 0-6.5-4.709-6.5-9.033zm9.852 0c0-3.455-.768-6.781-3.377-6.781-2.61 0-3.378 3.25-3.378 6.73s.716 6.703 3.352 6.703c2.584 0 3.403-3.147 3.403-6.652zM754.47 932.495c-.87.64-2.124 1.126-3.199 1.229l-.307-2.508c1.586-.23 2.892-1.101 3.607-2.124h2.841v17.4h-3.045l.103-13.997zm7.468 11.848c3.147-3.045 8.29-8.111 8.29-10.799 0-1.382-.716-2.481-2.533-2.508-2.072 0-2.559 1.74-2.636 2.764l-3.02-.281c.256-2.124 1.766-4.862 5.835-4.862 2.917 0 5.425 1.51 5.425 4.812 0 3.659-4.555 7.933-7.498 10.594l7.754-.052v2.482h-11.617v-2.15zm14.454 0c3.147-3.045 8.29-8.111 8.29-10.799 0-1.382-.716-2.481-2.533-2.508-2.072 0-2.559 1.74-2.636 2.764l-3.02-.281c.256-2.124 1.766-4.862 5.835-4.862 2.917 0 5.425 1.51 5.425 4.812 0 3.659-4.555 7.933-7.498 10.594l7.754-.052v2.482h-11.617v-2.15zm14.554-6.5c0-4.273 1.331-9.187 6.525-9.187 5.246 0 6.423 4.862 6.423 9.187 0 4.299-1.254 9.033-6.448 9.033-5.348 0-6.5-4.708-6.5-9.033zm9.852 0c0-3.454-.768-6.78-3.377-6.78-2.61 0-3.378 3.249-3.378 6.729s.716 6.704 3.352 6.704c2.584 0 3.403-3.147 3.403-6.653zM612.606 932.495c-.87.64-2.124 1.126-3.199 1.229l-.307-2.508c1.586-.23 2.892-1.101 3.607-2.124h2.841v17.4h-3.045l.103-13.997zm7.673 5.348c0-4.273 1.331-9.187 6.525-9.187 5.246 0 6.423 4.862 6.423 9.187 0 4.299-1.254 9.033-6.448 9.033-5.348 0-6.5-4.708-6.5-9.033zm9.852 0c0-3.454-.768-6.78-3.377-6.78-2.61 0-3.378 3.249-3.378 6.729s.716 6.704 3.352 6.704c2.584 0 3.403-3.147 3.403-6.653zm6.418 0c0-4.273 1.331-9.187 6.525-9.187 5.246 0 6.423 4.862 6.423 9.187 0 4.299-1.254 9.033-6.448 9.033-5.349 0-6.5-4.708-6.5-9.033zm9.851 0c0-3.454-.768-6.78-3.377-6.78-2.61 0-3.378 3.249-3.378 6.729s.716 6.704 3.352 6.704c2.585 0 3.403-3.147 3.403-6.653zm6.214 6.5c3.147-3.045 8.29-8.111 8.29-10.799 0-1.382-.716-2.481-2.533-2.508-2.072 0-2.559 1.74-2.636 2.764l-3.02-.281c.256-2.124 1.766-4.862 5.835-4.862 2.917 0 5.425 1.51 5.425 4.812 0 3.659-4.555 7.933-7.498 10.594l7.754-.052v2.482h-11.617v-2.15zM772.435 443.366c-.87.64-2.124 1.126-3.199 1.228l-.307-2.508c1.586-.23 2.892-1.1 3.607-2.124h2.841v17.4h-3.045l.103-13.996zm6.521 7.293l7.19-10.696h3.967l-.026 10.363 2.738-.025v2.405h-2.764v4.657h-2.789v-4.657h-8.316v-2.047zm8.342-.307l.052-7.958-5.246 8.01 5.194-.052zm6.956.307l7.19-10.696h3.967l-.026 10.363 2.738-.025v2.405h-2.764v4.657h-2.789v-4.657h-8.316v-2.047zm8.342-.307l.052-7.958-5.246 8.01 5.194-.052zm8.005-1.638c0-4.273 1.331-9.187 6.525-9.187 5.246 0 6.423 4.862 6.423 9.187 0 4.299-1.254 9.033-6.448 9.033-5.349 0-6.5-4.708-6.5-9.033zm9.851 0c0-3.455-.768-6.781-3.377-6.781-2.61 0-3.378 3.25-3.378 6.73s.716 6.704 3.352 6.704c2.585 0 3.403-3.147 3.403-6.653z" fill="#231F20"/>
    <path fill="none" stroke="#231F20" stroke-width="2" d="M576 884H278v86m638 0v-86H621M409 740v117m0-265v108m427.245 76.012a5.592 5.592 0 0 0-5.594-5.593c-3.086 0-5.594 2.504-5.594 5.593s2.508 5.593 5.594 5.593a5.592 5.592 0 0 0 5.594-5.593zM831 802v17.7s-.349 2.3 2.313 2.3h.319s2.367.359 2.367-2.3V787M831 802v17.7c0 2.659-3.011 2.3-3.011 2.3h-.319c-2.661 0-2.67-2.3-2.67-2.3V787m.009 12.332c0 2.662-2.662 2.668-2.662 2.668h-.32c-2.661 0-3.026-2.675-3.026-2.675v-15.057c0-2.659 3.026-2.269 3.026-2.269h17.249c2.658 0 2.724 2.269 2.724 2.269v15.057c0 2.662-2.724 2.675-2.724 2.675h-.322c-2.66 0-2.66-2.665-2.66-2.665m-485.167-1.955l-1.089 4.385s-.639 2.582-3.221 1.942l-.311-.074s-2.584-.64-1.944-3.224l2.557-10.332.807-3.169C348.68 783.84 352.5 784 352.5 784h10.313s3.817-.16 4.569 2.908l.807 3.223 2.559 10.306c.64 2.584-1.947 3.21-1.947 3.21l-.31.067c-2.582.64-3.221-1.946-3.221-1.946l-1.087-4.386m-.931-19.194a5.596 5.596 0 0 0-5.593-5.595 5.592 5.592 0 1 0 0 11.186 5.592 5.592 0 0 0 5.593-5.591zM358 811v10.875s-.341 3.125-3.003 3.125h-.32s-2.677-.463-2.677-3.125V811h-4.146l5.541-21.646M358 811v10.875s-.341 3.125 2.32 3.125h.319s2.36-.463 2.36-3.125V811h4.464l-5.2-21.646"/>
    <path fill="none" stroke="#231F20" stroke-width="2.301" d="M215.604 96.7l6.496-5.673-6.496-5.669"/>
    <path fill="none" stroke="#231F20" stroke-width="2" d="M221 91h-37"/>
    <path fill="#231F20" d="M168.825 99c.115 1 .178 1.271.178 1.872 0 4.877-3.968 8.902-8.842 8.902-4.877 0-8.844-3.939-8.844-8.816 0-3.805 2.416-7.044 5.797-8.288l-.189-2.273c-4.529 1.391-7.83 5.61-7.83 10.586 0 6.103 4.964 11.068 11.066 11.068 6.1 0 11.063-5.077 11.063-11.18 0-.599-.048-.872-.142-1.872h-2.257z"/>
    <circle fill="none" stroke="#231F20" stroke-width="1.976" cx="159.695" cy="78.257" r="2.97"/>
    <path fill="none" stroke="#231F20" stroke-width="2" d="M160 91h11m-11.306-9.522L160.737 96h12.762l3.996 11.054 3.665-.999M541 1059v-68m634 67H541"/>
    <path fill="none" stroke="#231F20" stroke-width="2.301" d="M1171.489 1046.646l-6.494-5.67 6.494-5.668"/>
    <path fill="none" stroke="#231F20" stroke-width="2" d="M1166 1041h37"/>
    <path fill="#231F20" d="M1218.27 1049c-.118 1-.177 1.246-.177 1.844 0 4.877 3.967 8.89 8.841 8.89 4.876 0 8.845-3.945 8.845-8.822 0-3.803-2.42-7.047-5.801-8.29l.192-2.272c4.529 1.389 7.83 5.608 7.83 10.582 0 6.105-4.964 11.068-11.066 11.068-6.1 0-11.063-5.05-11.063-11.155 0-.597.05-.844.14-1.844h2.259z"/>
    <path fill="none" stroke="#231F20" stroke-width="1.976" d="M1224.429 1028.207a2.972 2.972 0 1 1 5.943 0 2.972 2.972 0 0 1-5.943 0z"/>
    <path fill="none" stroke="#231F20" stroke-width="2" d="M1227 1041h-11m11.401-9.545l-1.045 14.545h-12.762l-3.994 11.029-3.668-1"/>
    <path fill="none" stroke="#231F20" stroke-width="2" stroke-linecap="round" stroke-linejoin="round" d="M382 716v15"/>
    <path fill="#231F20" d="M382.335 711.586a1.496 1.496 0 1 0 .004-2.992 1.496 1.496 0 0 0-.004 2.992"/>
    <path fill="none" stroke="#231F20" stroke-width="2" stroke-linejoin="round" d="M857.019 717.573L839.331 731h35.376z"/>
    <path fill="none" stroke="#231F20" stroke-width="2.301" stroke-linecap="round" stroke-linejoin="round" d="M859.671 711.555a2.65 2.65 0 1 0-4.466 1.931c.477.446 1.814 1.101 1.812 1.947l-.008 1.668"/>
    <g fill="none" stroke="#231F20">
        <path stroke-width="2" d="M329.434 614l-1.244 26h22.879l-1.244-26z"/>
        <path stroke-width="2.301" d="M344.97 618.307c0-6.941-2.39-12.57-5.342-12.57-2.946 0-5.338 5.629-5.338 12.57"/>
    </g>
    <path d="M316.072 586.337l1.806-.345s.212 2.858 3.897 2.858c2.263 0 3.551-1.056 3.551-2.474 0-1.786-2.208-2.478-4.11-3.054-2.821-.864-4.354-1.938-4.354-4.186 0-2.379 2.245-3.742 5.009-3.742 4.165 0 4.972 3.091 4.972 3.091l-1.69.577s-.595-2.093-3.281-2.093c-1.748 0-3.129.749-3.129 2.11 0 1.46 1.766 2.055 3.666 2.629 2.842.864 4.836 2.035 4.836 4.646 0 2.802-2.592 4.088-5.468 4.088-5.415.002-5.705-4.105-5.705-4.105zM330 575h2.067l-.074 6.217c.422-.712 1.449-1.652 3.35-1.652 2.534 0 3.657 2.128 3.657 4.143V590h-2v-5.756c0-1.344-.314-3.051-2.176-3.051-1.172 0-2.145.691-2.528 1.67-.285.729-.296 1.266-.296 3.301V590h-2v-15zm11.825 10.07c0-2.727 1.498-5.45 4.935-5.45 3.551 0 4.894 2.609 4.894 5.45 0 2.725-1.479 5.374-4.914 5.374-3.552 0-4.915-2.532-4.915-5.374zm7.948 0c0-2.305-.979-3.955-3.054-3.955-2.072 0-3.012 1.65-3.012 3.955 0 2.303.959 3.878 3.031 3.878s3.035-1.575 3.035-3.878zM355 580h1v1.365c1-.691 1.662-1.745 3.445-1.745 3.398 0 4.746 2.704 4.746 5.45 0 2.899-1.936 5.374-4.739 5.374-1.631 0-2.56-1.054-3.005-1.63l.11 5.186H355v-14zm7.41 5.07c0-2.305-.938-3.935-2.993-3.935-2.075 0-3.034 1.63-3.034 3.935 0 2.303.959 3.858 3.034 3.858 1.88.001 2.993-1.573 2.993-3.858z" fill="#231F20"/>
    <g fill="none" stroke="#231F20" stroke-width="2">
        <path d="M850 618v20.866s.104 3.134 2.9 3.134h16.045s3.055-.337 3.055-3.134V618h-22z"/>
        <path stroke-linejoin="round" d="M873.039 634.837c4.574 0 6.378-4.837 6.378-10.837H873m-49-20v16h9v-16"/>
        <path d="M828 604v16"/>
        <path stroke-linejoin="round" d="M826 620v23h5v-23"/>
    </g>
    <path d="M825.382 582.459c0-4.722 2.648-7.601 6.486-7.601 4.32 0 5.471 3.533 5.471 3.533l-1.63.729s-.884-2.648-3.878-2.648c-2.727 0-4.435 2.417-4.435 5.97 0 3.551 1.593 5.758 4.415 5.758 3.148 0 3.992-2.898 3.992-2.898l1.711.536s-1.02 3.993-5.74 3.993c-3.706-.001-6.392-2.476-6.392-7.372zm14.42 4.242c0-2.437 2.87-3.396 5.347-3.396.672 0 .852.058 1.852.114v-.175c0-1.266-.373-2.801-2.467-2.801-2.092 0-2.442 1.69-2.442 1.69l-1.749-.5s.439-2.629 3.992-2.629c3.033 0 4.117 1.343 4.098 3.915l-.046 4.144c-.018 1.249.15 2.936.15 2.936h-1.748l-.096-1.784c-.422.749-1.383 1.729-3.53 1.729-1.921 0-3.361-1.228-3.361-3.243zm7.198-1.86v-.077l-1.717-.058c-2.592 0-3.517.824-3.517 2.016 0 1.19 1.12 1.65 1.964 1.65 2.573 0 3.27-2.38 3.27-3.531zm4-5.841h1v-1.877c0-1.803 1.237-2.629 2.677-2.629.941 0 1.522.135 1.522.135l-.049 1.516s-.623-.095-1.123-.095c-1.036 0-1.027.806-1.027 1.535V579h2v2h-1.986l.021 9h-1.748l-.04-9H851v-2zm6.924 5.456c0-3.054 1.573-5.45 4.779-5.45 2.899 0 4.28 2.238 4.319 4.828 0 .328 0 .166-.039 1.166h-7.257c.04 2 1.114 3.48 3.034 3.48 2.055 0 2.629-1.514 2.629-1.514l1.498.693s-1.094 2.188-4.127 2.188c-3.3.002-4.836-2.242-4.836-5.391zm1.843-1.456h5.451c-.018-1-.882-2.882-2.572-2.882-1.631 0-2.669 1.882-2.879 2.882z" fill="#231F20"/>
    <path fill="none" stroke="#231F20" stroke-width="2" d="M911 139v99m0 43v50"/>
    <path fill="#fff" d="M576 990h45v2h-45zM410 881h39v6h-39zm335 0h39v6h-39z"/>
</svg>
